<?xml version="1.0" standalone="no"?>
<!DOCTYPE svg PUBLIC "-//W3C//DTD SVG 20010904//EN"
 "http://www.w3.org/TR/2001/REC-SVG-20010904/DTD/svg10.dtd">
<svg version="1.0" xmlns="http://www.w3.org/2000/svg"
 width="277.000000pt" height="53.000000pt" viewBox="0 0 277.000000 53.000000"
 preserveAspectRatio="xMidYMid meet">

<g transform="translate(0.000000,53.000000) scale(0.100000,-0.100000)"
fill="#000000" stroke="none">
<path d="M0 303 l1 -228 23 38 c12 20 25 40 28 43 3 3 34 -5 69 -16 49 -17 68
-19 86 -11 46 21 22 55 -60 85 -83 31 -137 91 -137 153 1 41 34 109 64 129 15
9 41 20 59 24 24 6 11 8 -50 9 l-83 1 0 -227z"/>
<path d="M217 520 c51 -11 143 -49 143 -61 0 -13 -18 -11 -43 5 -12 8 -49 22
-81 30 -95 25 -172 -7 -196 -80 -26 -78 18 -145 122 -185 70 -26 93 -49 84
-84 -9 -36 -44 -47 -103 -31 -26 7 -56 16 -65 20 -12 6 -21 0 -33 -23 -9 -18
-13 -36 -10 -41 9 -15 103 -42 149 -42 77 0 131 44 143 116 11 70 -45 133
-148 165 -50 16 -73 43 -65 76 10 41 49 50 121 27 44 -15 62 -17 67 -9 12 18
-67 49 -125 50 -42 1 -53 -3 -73 -27 -47 -53 -17 -121 64 -147 119 -38 157
-93 117 -169 -20 -38 -46 -52 -101 -52 -49 0 -114 19 -114 33 0 12 6 11 62 -5
34 -11 56 -12 81 -5 43 12 56 27 64 72 7 46 -23 76 -106 106 -97 35 -131 93
-95 162 31 61 103 70 207 27 50 -22 55 -32 32 -62 -14 -19 -16 -19 -54 -1 -54
24 -110 25 -125 3 -14 -24 13 -49 78 -73 101 -37 151 -114 127 -194 -16 -54
-62 -98 -114 -109 -30 -7 43 -10 256 -11 186 -1 297 3 297 9 0 5 -10 30 -22
55 l-22 45 -87 0 c-48 0 -94 3 -102 6 -11 4 -19 -5 -27 -30 -6 -20 -18 -36
-25 -36 -11 0 -10 8 3 40 l17 40 115 0 116 0 27 -55 c26 -53 28 -55 68 -55 34
0 39 3 35 18 -23 71 -207 467 -218 467 -12 0 -215 -443 -217 -472 -1 -9 14
-13 45 -13 41 0 46 3 55 30 l11 30 81 -2 82 -2 -74 -3 c-71 -4 -73 -5 -84 -33
-11 -29 -13 -30 -79 -30 -37 0 -68 2 -68 5 0 2 51 119 114 260 l114 255 -231
-1 c-151 -1 -218 -4 -190 -9z m486 -165 c19 -44 58 -131 86 -192 29 -66 45
-113 38 -113 -7 0 -46 79 -87 175 -41 96 -78 175 -81 175 -3 0 -26 -48 -51
-107 l-44 -108 64 -3 c35 -2 66 -1 68 1 6 5 -30 87 -38 87 -3 0 -11 -13 -17
-30 -5 -17 -15 -30 -21 -30 -7 0 -10 3 -8 8 2 4 11 28 22 55 10 26 21 47 25
47 3 0 18 -29 33 -63 47 -107 54 -97 -62 -97 -56 0 -100 4 -98 9 33 86 125
278 129 273 4 -4 23 -43 42 -87z"/>
<path d="M680 527 c0 -2 52 -117 115 -257 63 -139 115 -254 115 -256 0 -2 -21
-5 -47 -7 -34 -2 -25 -4 30 -5 l77 -2 0 265 0 265 -145 0 c-80 0 -145 -1 -145
-3z"/>
<path d="M1040 290 c0 -153 -4 -240 -10 -240 -6 0 -10 83 -10 230 0 198 -2
230 -15 230 -13 0 -15 -34 -15 -245 l0 -246 128 3 127 3 3 37 3 38 -65 0 c-37
0 -66 4 -66 10 0 6 30 10 70 10 l70 0 0 -60 0 -60 30 0 30 0 0 260 c0 167 4
260 10 260 6 0 10 -90 10 -250 l0 -250 145 0 145 0 0 45 0 45 -105 0 -105 0 0
30 c0 17 5 30 10 30 6 0 10 -9 10 -20 0 -19 7 -20 105 -20 l105 0 0 -65 0 -65
102 0 c97 0 100 1 85 18 -30 33 -15 72 28 72 43 0 63 -58 28 -79 -13 -8 7 -10
75 -11 l92 0 0 265 0 265 -485 0 -485 0 0 -225 0 -225 60 0 c47 0 60 -3 60
-15 0 -12 -14 -15 -70 -15 l-70 0 0 240 c0 207 -2 240 -15 240 -13 0 -15 -33
-15 -240z m610 170 l0 -60 -85 0 c-50 0 -85 4 -85 10 0 6 32 10 75 10 l75 0 0
40 0 40 -120 0 -120 0 0 -110 0 -110 85 0 c50 0 85 -4 85 -10 0 -6 -38 -10
-95 -10 l-95 0 0 130 0 130 140 0 140 0 0 -60z m-50 0 c0 -6 -33 -10 -80 -10
l-80 0 0 -60 0 -60 90 0 90 0 0 -60 0 -60 -115 0 -115 0 0 -65 0 -65 105 0
c63 0 105 -4 105 -10 0 -6 -45 -10 -115 -10 l-115 0 0 85 0 85 115 0 115 0 0
40 0 40 -90 0 -90 0 0 80 0 80 90 0 c53 0 90 -4 90 -10z"/>
<path d="M2130 295 c0 -150 -4 -235 -10 -235 -6 0 -10 82 -10 225 0 193 -2
225 -15 225 -13 0 -15 -34 -15 -245 l0 -245 40 0 40 0 0 255 c0 220 -2 255
-15 255 -13 0 -15 -33 -15 -235z"/>
<path d="M2180 265 l0 -265 168 1 c116 1 153 4 121 9 -57 10 -79 21 -131 68
-60 55 -82 104 -83 187 0 59 5 78 29 123 34 61 81 100 151 124 l50 17 -152 1
-153 0 0 -265z"/>
<path d="M2590 515 c62 -19 128 -78 156 -139 l24 -51 0 103 0 102 -112 -1
c-112 0 -113 0 -68 -14z"/>
<path d="M2431 493 c-63 -22 -126 -89 -145 -154 -20 -65 -20 -83 -1 -145 50
-168 266 -224 393 -101 111 106 97 290 -28 369 -78 50 -141 59 -219 31z m195
-48 c63 -41 94 -101 94 -179 -1 -122 -86 -206 -210 -206 -124 0 -225 115 -205
235 8 55 48 119 89 145 65 39 176 42 232 5z"/>
<path d="M2458 446 c-21 -7 -49 -21 -64 -31 -30 -19 -74 -107 -74 -148 0 -61
52 -142 112 -173 39 -20 126 -18 168 5 105 56 134 200 58 287 -54 62 -132 85
-200 60z m136 -44 c46 -27 69 -66 73 -124 5 -65 -17 -112 -67 -146 -30 -20
-44 -23 -99 -20 -59 4 -66 7 -102 45 -63 68 -63 158 2 222 52 52 127 61 193
23z"/>
<path d="M2453 390 c-30 -16 -48 -34 -64 -66 -27 -57 -20 -103 25 -151 59 -65
171 -55 216 20 72 118 -55 258 -177 197z"/>
<path d="M2751 164 c-27 -74 -109 -140 -196 -155 -26 -4 5 -7 88 -8 l127 -1 0
100 c0 55 -1 100 -3 100 -2 0 -9 -16 -16 -36z"/>
<path d="M1844 65 c-15 -37 21 -60 46 -30 10 12 10 18 0 30 -7 8 -19 15 -27
15 -7 0 -16 -7 -19 -15z"/>
<path d="M0 30 l0 -30 93 1 c78 1 85 3 46 9 -25 4 -65 17 -89 29 -24 12 -45
21 -47 21 -2 0 -3 -13 -3 -30z"/>
</g>
</svg>
