<?xml version="1.0" standalone="no"?>
<!DOCTYPE svg PUBLIC "-//W3C//DTD SVG 20010904//EN"
 "http://www.w3.org/TR/2001/REC-SVG-20010904/DTD/svg10.dtd">
<svg version="1.0" xmlns="http://www.w3.org/2000/svg"
 width="94.000000pt" height="92.000000pt" viewBox="0 0 94.000000 92.000000"
 preserveAspectRatio="xMidYMid meet">

<g transform="translate(0.000000,92.000000) scale(0.100000,-0.100000)"
fill="#000000" stroke="none">
<path d="M0 733 c0 -176 1 -186 16 -158 19 38 58 80 108 116 60 45 67 34 9
-16 -57 -50 -98 -123 -89 -159 4 -18 41 -46 61 -46 2 0 6 22 10 49 13 94 85
211 131 211 9 0 11 14 7 55 -9 82 12 111 92 128 11 3 -62 5 -162 6 l-183 1 0
-187z"/>
<path d="M429 904 c51 -13 135 -54 128 -61 -2 -2 -30 6 -62 17 -78 27 -158 27
-185 0 -21 -21 -26 -55 -10 -65 6 -4 34 1 63 11 77 26 178 25 215 -3 l30 -22
23 25 c12 13 39 29 60 35 93 28 162 -77 158 -244 -1 -34 -4 -48 -5 -32 -20
174 -85 273 -151 229 l-25 -16 60 -61 c72 -76 92 -113 92 -171 0 -41 2 -45 30
-51 17 -4 44 -18 60 -32 l30 -25 0 241 0 241 -282 -1 c-266 0 -280 -1 -229
-15z"/>
<path d="M375 794 c-11 -3 -30 -7 -42 -10 -13 -2 -23 -11 -23 -19 0 -18 110
-136 144 -155 24 -13 28 -11 57 16 35 33 72 105 64 126 -10 26 -50 41 -115 44
-36 2 -74 1 -85 -2z"/>
<path d="M631 708 c-18 -46 -41 -140 -41 -170 0 -16 67 -38 115 -38 48 0 85
25 85 58 0 45 -101 202 -130 202 -4 0 -17 -24 -29 -52z"/>
<path d="M200 651 c-35 -37 -80 -131 -80 -168 0 -23 97 -13 175 19 59 23 60
24 57 58 -2 19 -15 55 -30 80 -38 63 -70 66 -122 11z"/>
<path d="M444 496 c-29 -21 -21 -72 12 -80 14 -4 33 -2 44 4 27 14 27 66 1 80
-26 13 -33 13 -57 -4z"/>
<path d="M0 253 l0 -253 288 1 c250 1 280 2 237 13 -49 12 -140 54 -133 61 2
2 28 -5 58 -15 64 -23 158 -26 184 -7 17 13 26 61 13 74 -3 3 -27 -2 -53 -11
-26 -9 -74 -18 -108 -22 -52 -5 -68 -2 -107 18 -42 22 -48 23 -57 8 -12 -20
-72 -50 -101 -50 -61 0 -122 110 -120 219 l1 56 13 -63 c18 -81 42 -130 78
-156 26 -19 30 -20 55 -5 15 9 26 21 24 27 -1 7 3 12 9 12 17 0 57 100 67 168
10 72 7 76 -66 88 -65 10 -111 -2 -118 -32 -9 -36 10 -92 50 -149 39 -54 39
-71 1 -35 -52 49 -89 119 -89 171 -1 34 -5 49 -14 49 -28 0 -83 34 -97 59 -13
23 -14 -2 -15 -226z"/>
<path d="M702 434 c-29 -7 -66 -21 -83 -30 -28 -14 -30 -19 -24 -52 9 -52 55
-116 86 -120 14 -2 37 6 52 18 26 21 81 122 93 173 6 26 5 27 -32 26 -22 0
-63 -7 -92 -15z"/>
<path d="M827 377 c-20 -86 -61 -155 -104 -176 -31 -16 -32 -17 -26 -71 4 -46
2 -59 -17 -82 -11 -15 -36 -32 -53 -37 -23 -7 18 -9 141 -10 l172 -1 0 178
c-1 134 -3 172 -12 157 -17 -32 -60 -75 -105 -106 -61 -43 -63 -35 -4 21 29
27 61 70 72 96 19 41 19 47 5 68 -8 13 -23 26 -34 28 -16 5 -21 -5 -35 -65z"/>
<path d="M428 285 c-37 -37 -66 -105 -53 -125 13 -21 73 -40 127 -40 52 0 124
13 135 24 16 16 -131 176 -162 176 -7 0 -27 -16 -47 -35z"/>
</g>
</svg>
