<?xml version="1.0" standalone="no"?>
<!DOCTYPE svg PUBLIC "-//W3C//DTD SVG 20010904//EN"
 "http://www.w3.org/TR/2001/REC-SVG-20010904/DTD/svg10.dtd">
<svg version="1.0" xmlns="http://www.w3.org/2000/svg"
 width="277.000000pt" height="53.000000pt" viewBox="0 0 277.000000 53.000000"
 preserveAspectRatio="xMidYMid meet">

<g transform="translate(0.000000,53.000000) scale(0.100000,-0.100000)"
fill="#ffc400" stroke="#000000">
<path d="M133 520 c-18 -4 -44 -15 -59 -24 -30 -20 -63 -88 -64 -129 0 -62 54
-122 137 -153 82 -30 106 -64 60 -85 -18 -8 -37 -6 -85 10 -34 12 -63 21 -66
21 -2 0 -16 -21 -31 -46 -26 -45 -27 -47 -9 -58 118 -69 255 -61 304 19 60 97
17 195 -106 240 -65 24 -92 49 -78 73 15 22 71 21 125 -3 38 -18 40 -18 54 1
23 30 18 40 -32 62 -104 43 -176 34 -207 -27 -36 -69 -2 -127 95 -162 83 -30
113 -60 106 -106 -8 -45 -21 -60 -64 -72 -25 -7 -47 -6 -81 5 -56 16 -62 17
-62 5 0 -14 65 -33 114 -33 55 0 81 14 101 52 40 76 2 131 -117 169 -81 26
-111 94 -64 147 20 24 31 28 73 27 58 -1 137 -32 125 -50 -5 -8 -23 -6 -67 9
-72 23 -111 14 -121 -27 -8 -33 15 -60 65 -76 103 -32 159 -95 148 -165 -12
-72 -66 -116 -143 -116 -46 0 -140 27 -149 42 -3 5 1 23 10 41 12 23 21 29 33
23 9 -4 39 -13 65 -20 59 -16 94 -5 103 31 9 35 -14 58 -84 84 -104 40 -148
107 -122 185 24 73 101 105 195 81 32 -9 70 -23 86 -32 16 -9 32 -14 36 -9 10
9 -10 21 -72 45 -63 23 -111 30 -152 21z"/>
<path d="M631 513 c-14 -27 -221 -493 -221 -499 0 -2 31 -4 68 -4 66 0 68 1
79 30 11 28 13 29 84 33 l74 3 -82 2 -81 2 -11 -30 c-9 -27 -14 -30 -55 -30
-31 0 -46 4 -45 13 2 29 205 472 217 472 11 0 195 -396 218 -467 4 -15 -1 -18
-35 -18 -40 0 -42 2 -68 55 l-27 55 -116 0 -115 0 -17 -40 c-13 -32 -14 -40
-3 -40 7 0 19 16 25 36 8 25 16 34 27 30 8 -3 54 -6 103 -6 l88 0 23 -54 24
-55 60 6 c33 3 61 7 63 8 1 1 -50 117 -114 258 -91 200 -121 257 -135 257 -10
0 -22 -8 -28 -17z"/>
<path d="M970 265 l0 -265 145 0 145 0 0 60 0 60 -70 0 c-40 0 -70 -4 -70 -10
0 -6 29 -10 66 -10 l65 0 -3 -38 -3 -37 -127 -3 -128 -3 0 246 c0 211 2 245
15 245 13 0 15 -32 15 -230 0 -147 4 -230 10 -230 6 0 10 87 10 240 l0 240
-35 0 -35 0 0 -265z"/>
<path d="M1070 290 l0 -240 70 0 c56 0 70 3 70 15 0 12 -13 15 -60 15 l-60 0
0 225 c0 143 -4 225 -10 225 -6 0 -10 -87 -10 -240z"/>
<path d="M2060 265 l0 -265 60 0 60 0 0 265 c0 170 -4 265 -10 265 -6 0 -10
-92 -10 -255 l0 -255 -40 0 -40 0 0 245 c0 211 2 245 15 245 13 0 15 -32 15
-225 0 -143 4 -225 10 -225 6 0 10 85 10 235 l0 235 -35 0 -35 0 0 -265z"/>
<path d="M2435 512 c-70 -24 -117 -63 -151 -124 -24 -45 -29 -64 -29 -123 1
-84 23 -132 85 -189 56 -51 100 -67 175 -67 145 0 254 110 255 256 0 114 -76
218 -184 250 -63 19 -89 18 -151 -3z m135 -12 c186 -52 246 -275 108 -407
-127 -123 -343 -67 -393 101 -19 62 -19 80 1 145 35 119 167 194 284 161z"/>
<path d="M2472 468 c-155 -27 -223 -216 -120 -334 43 -49 97 -74 158 -74 124
0 209 84 210 206 0 138 -109 227 -248 202z m129 -34 c40 -20 87 -80 95 -119
24 -131 -58 -235 -184 -235 -81 0 -143 43 -176 122 -22 51 -20 84 8 145 46 97
161 136 257 87z"/>
<path d="M2463 419 c-43 -13 -90 -62 -104 -109 -17 -56 -4 -106 40 -153 36
-38 43 -41 102 -45 55 -3 69 0 99 20 50 34 72 81 67 146 -2 32 -12 63 -24 80
-40 53 -117 80 -180 61z m125 -35 c59 -38 79 -130 42 -191 -28 -46 -72 -66
-134 -60 -41 4 -55 11 -82 40 -45 48 -52 94 -25 151 38 77 129 105 199 60z"/>
<path d="M1320 260 l0 -260 165 0 165 0 0 65 0 65 -105 0 c-98 0 -105 1 -105
20 0 11 -4 20 -10 20 -5 0 -10 -13 -10 -30 l0 -30 105 0 105 0 0 -45 0 -45
-145 0 -145 0 0 250 c0 160 -4 250 -10 250 -6 0 -10 -93 -10 -260z"/>
<path d="M1370 390 l0 -130 95 0 c57 0 95 4 95 10 0 6 -35 10 -85 10 l-85 0 0
110 0 110 120 0 120 0 0 -40 0 -40 -75 0 c-43 0 -75 -4 -75 -10 0 -6 35 -10
85 -10 l85 0 0 60 0 60 -140 0 -140 0 0 -130z"/>
<path d="M1420 390 l0 -80 90 0 90 0 0 -40 0 -40 -115 0 -115 0 0 -85 0 -85
115 0 c70 0 115 4 115 10 0 6 -42 10 -105 10 l-105 0 0 65 0 65 115 0 115 0 0
60 0 60 -90 0 -90 0 0 60 0 60 80 0 c47 0 80 4 80 10 0 6 -37 10 -90 10 l-90
0 0 -80z"/>
<path d="M595 313 c-33 -75 -61 -140 -63 -144 -2 -5 42 -9 98 -9 116 0 109
-10 62 97 -15 34 -30 63 -33 63 -4 0 -15 -21 -25 -47 -11 -27 -20 -51 -22 -55
-2 -5 1 -8 8 -8 6 0 16 13 21 30 6 17 14 30 17 30 8 0 44 -82 38 -87 -2 -2
-33 -3 -68 -1 l-64 3 44 108 c25 59 48 107 51 107 3 0 40 -79 81 -175 41 -96
80 -175 87 -175 7 0 -9 47 -38 113 -28 61 -67 148 -86 192 -19 44 -38 83 -42
87 -3 4 -33 -55 -66 -129z"/>
<path d="M1832 78 c-18 -18 -15 -43 8 -63 41 -37 97 24 58 63 -15 15 -51 15
-66 0z m58 -13 c10 -12 10 -18 0 -30 -16 -19 -39 -19 -46 0 -15 37 21 60 46
30z"/>
</g>
</svg>
