<?xml version="1.0" standalone="no"?>
<!DOCTYPE svg PUBLIC "-//W3C//DTD SVG 20010904//EN"
 "http://www.w3.org/TR/2001/REC-SVG-20010904/DTD/svg10.dtd">
<svg version="1.0" xmlns="http://www.w3.org/2000/svg"
 width="152.000000pt" height="133.000000pt" viewBox="0 0 152.000000 133.000000"
 preserveAspectRatio="xMidYMid meet">

<g transform="translate(0.000000,133.000000) scale(0.100000,-0.100000)"
fill="#ffc400" stroke="#000000">
<path d="M725 1043 c-79 -16 -101 -46 -92 -128 4 -41 2 -55 -7 -55 -46 0 -118
-117 -131 -211 -4 -27 -8 -49 -10 -49 -20 0 -57 28 -61 46 -9 36 32 109 89
159 58 50 51 61 -10 16 -56 -41 -112 -109 -119 -146 -8 -44 16 -88 60 -109 19
-9 40 -16 48 -16 9 0 13 -15 14 -49 0 -52 37 -122 89 -171 38 -36 38 -19 -1
35 -40 57 -59 113 -50 149 7 30 53 42 118 32 73 -12 76 -16 66 -88 -10 -68
-50 -168 -67 -168 -6 0 -10 -5 -9 -12 2 -6 -9 -18 -24 -27 -25 -15 -29 -14
-55 5 -36 26 -60 75 -78 156 l-13 63 -1 -56 c-2 -109 59 -219 120 -219 29 0
89 30 101 50 9 15 15 14 57 -8 39 -20 55 -23 107 -18 34 4 82 13 108 22 26 9
50 14 53 11 13 -13 4 -61 -13 -74 -26 -19 -120 -16 -184 7 -30 10 -56 17 -58
15 -8 -8 95 -53 144 -63 64 -14 115 -1 145 36 18 23 20 36 16 82 -6 54 -5 55
26 71 43 21 83 88 104 175 17 66 20 71 40 63 62 -23 41 -103 -48 -189 -55 -53
-57 -64 -6 -28 89 60 127 113 127 177 0 31 -6 44 -30 64 -16 14 -43 28 -60 32
-28 6 -30 10 -30 51 0 58 -20 95 -92 171 l-60 61 25 16 c66 44 131 -55 151
-229 1 -16 4 -2 5 32 4 167 -65 272 -158 244 -21 -6 -48 -22 -60 -35 l-23 -25
-30 22 c-37 28 -138 29 -215 3 -57 -19 -73 -16 -73 15 0 37 35 59 93 59 30 0
80 -9 112 -20 72 -25 78 -25 40 0 -49 32 -152 61 -190 53z m203 -134 c12 -7
24 -20 27 -27 8 -21 -29 -93 -64 -126 -29 -27 -33 -29 -57 -16 -34 19 -144
137 -144 155 0 8 10 17 23 19 12 3 31 7 42 10 37 9 150 -1 173 -15z m157 -60
c38 -43 85 -131 85 -161 0 -33 -37 -58 -85 -58 -48 0 -115 22 -115 38 0 54 53
222 70 222 4 0 24 -18 45 -41z m-383 -79 c15 -25 28 -61 30 -80 3 -34 2 -35
-57 -58 -78 -32 -175 -42 -175 -19 0 37 45 131 80 168 52 55 84 52 122 -11z
m179 -140 c26 -14 26 -66 -1 -80 -11 -6 -30 -8 -44 -4 -33 8 -41 59 -12 80 24
17 31 17 57 4z m325 -77 c-12 -51 -67 -152 -93 -173 -15 -12 -38 -20 -52 -18
-31 4 -77 68 -86 120 -6 33 -4 38 24 52 42 22 128 45 175 45 37 1 38 0 32 -26z
m-284 -153 c56 -49 105 -116 95 -126 -11 -11 -83 -24 -135 -24 -54 0 -114 19
-127 40 -19 31 62 160 100 160 6 0 36 -23 67 -50z"/>
</g>
</svg>
